<?xml version="1.0" encoding="UTF-8"?>
<svg width="96px" height="57px" viewBox="0 0 96 57" version="1.1" xmlns="http://www.w3.org/2000/svg" xmlns:xlink="http://www.w3.org/1999/xlink">
    <!-- Generator: Sketch 42 (36781) - http://www.bohemiancoding.com/sketch -->
    <title>Page 1</title>
    <desc>Created with Sketch.</desc>
    <defs></defs>
    <g id="Desktop" stroke="none" stroke-width="1" fill="none" fill-rule="evenodd">
        <g id="d-01-01-home" transform="translate(-225.000000, -1745.000000)" stroke="#EFC519" stroke-width="2">
            <g id="Group-8" transform="translate(130.000000, 1679.000000)">
                <g id="Group-7" transform="translate(80.000000, 67.000000)">
                    <g id="Page-1" transform="translate(15.000000, 0.000000)">
                        <path d="M11.3670993,7.85752564 L11.3670993,0.000282051283" id="Stroke-1"></path>
                        <polyline id="Stroke-3" points="10.7034963 0 65.6079081 0 65.6079081 46.4594872 34.5952978 46.4594872"></polyline>
                        <polyline id="Stroke-6" points="11.3670993 31.8043141 11.3670993 46.4589936 18.6569522 46.4589936"></polyline>
                        <polyline id="Stroke-7" points="65.6080478 12.6593782 81.4234522 12.6593782 94.7674596 30.868609 94.7674596 46.4589936 88.0490037 46.4589936"></polyline>
                        <path d="M65.6080478,46.4592756 L72.774261,46.4592756" id="Stroke-9"></path>
                        <polygon id="Stroke-10" points="17.6686029 32.6152821 59.1836029 32.6152821 59.1836029 6.29848718 17.6686029 6.29848718"></polygon>
                        <polygon id="Stroke-11" points="71.2915625 18.1471795 78.5814154 18.1471795 88.095386 32.615 71.2915625 32.615"></polygon>
                        <path d="M91.9253529,38.4770128 L94.7669706,38.4770128" id="Stroke-12"></path>
                        <path d="M2.03865809,13.3453269 L25.7614154,13.3453269" id="Stroke-14"></path>
                        <path d="M7.10446324,19.4567436 L31.7534706,19.4567436" id="Stroke-17"></path>
                        <path d="M2.71825735,25.8799679 L9.20480147,25.8799679" id="Stroke-18"></path>
                        <path d="M13.0968676,25.8799679 L25.2673456,25.8799679" id="Stroke-20"></path>
                        <path d="M33.9777978,13.3453269 L36.1397463,13.3453269" id="Stroke-21"></path>
                        <path d="M11.3670993,38.7888205 L14.7032757,38.7888205" id="Stroke-22"></path>
                        <path d="M0,19.4567436 L1.91536765,19.4567436" id="Stroke-23"></path>
                        <path d="M25.7613456,46.4592756 L27.9854632,46.4592756" id="Stroke-25"></path>
                        <path d="M79.075625,46.4592756 L81.2997426,46.4592756" id="Stroke-26"></path>
                        <path d="M34.7345846,46.4124551 C34.7345846,50.7948269 31.2146949,54.3479679 26.8733346,54.3479679 C22.5319743,54.3479679 19.0120846,50.7948269 19.0120846,46.4124551 C19.0120846,42.0300833 22.5319743,38.4769423 26.8733346,38.4769423 C31.2146949,38.4769423 34.7345846,42.0300833 34.7345846,46.4124551 Z" id="Stroke-27"></path>
                        <path d="M88.0487941,46.568359 C88.0487941,50.9507308 84.5289044,54.5038718 80.1875441,54.5038718 C75.8461838,54.5038718 72.3262941,50.9507308 72.3262941,46.568359 C72.3262941,42.1859872 75.8461838,38.6328462 80.1875441,38.6328462 C84.5289044,38.6328462 88.0487941,42.1859872 88.0487941,46.568359 Z" id="Stroke-29"></path>
                        <path d="M31.0206434,46.4124551 C31.0206434,48.7245705 29.1639522,50.5988013 26.8734743,50.5988013 C24.5829963,50.5988013 22.7263051,48.7245705 22.7263051,46.4124551 C22.7263051,44.1003397 24.5829963,42.226109 26.8734743,42.226109 C29.1639522,42.226109 31.0206434,44.1003397 31.0206434,46.4124551 Z" id="Stroke-31"></path>
                        <path d="M84.3349228,46.568359 C84.3349228,48.8804744 82.4782316,50.7547051 80.1877537,50.7547051 C77.8972757,50.7547051 76.0405846,48.8804744 76.0405846,46.568359 C76.0405846,44.2562436 77.8972757,42.3820128 80.1877537,42.3820128 C82.4782316,42.3820128 84.3349228,44.2562436 84.3349228,46.568359 Z" id="Stroke-33"></path>
                        <path d="M29.8386618,25.8799679 L31.7540294,25.8799679" id="Stroke-35"></path>
                    </g>
                </g>
            </g>
        </g>
    </g>
</svg>