<?xml version="1.0" encoding="UTF-8"?>
<svg width="59px" height="18px" viewBox="0 0 59 18" version="1.1" xmlns="http://www.w3.org/2000/svg" xmlns:xlink="http://www.w3.org/1999/xlink">
    <!-- Generator: Sketch 42 (36781) - http://www.bohemiancoding.com/sketch -->
    <title>Page 1</title>
    <desc>Created with Sketch.</desc>
    <defs></defs>
    <g id="Symbols" stroke="none" stroke-width="1" fill="none" fill-rule="evenodd" opacity="0.5">
        <g id="footer" transform="translate(-1251.000000, -291.000000)" fill="#FFFFFF">
            <g id="Group-12" transform="translate(1189.000000, 285.000000)">
                <path d="M85.0398176,6 L89.8343197,6 L86.8342872,22.8631252 L82.0413268,22.8631252 L85.0398176,6 Z M83.545968,6 L75.9950127,22.8291448 L70.9183904,22.8350545 L66.6249216,8.77604803 C69.7143692,10.6686066 72.339783,13.6692205 73.2663089,15.7641838 L73.7673421,17.5016147 L78.4647208,6 L83.545968,6 Z M62,6.33980364 L62.060124,6 L69.4969979,6 C70.4975226,6.03398036 71.3038006,6.33980364 71.5874624,7.36660161 L73.20156,14.8171659 C71.610587,10.9227206 67.7873185,7.67833452 62,6.33980364 L62,6.33980364 Z M103.442381,17.6404909 C103.406923,21.1434233 100.137103,23.4053336 95.0959388,23.4053336 C92.9468919,23.3831725 90.874927,22.9783629 89.7495294,22.5055927 L90.4232263,18.7308174 L91.0429658,19.0026603 C92.6216057,19.6320358 93.6390885,19.8846724 95.5599726,19.8846724 C96.9397408,19.8846724 98.4150908,19.3661025 98.4258823,18.2344086 C98.4320489,17.495705 97.8061428,16.9712255 95.9392161,16.1453549 C94.1216219,15.3372132 91.7120378,13.986863 91.7428706,11.5639153 C91.7659952,8.28554886 95.1082719,6 99.8472749,6 C101.70341,6 103.189552,6.36344216 104.142285,6.70915543 L103.491713,10.3627833 L103.05697,10.1662882 C102.178235,9.82648451 101.040505,9.49702272 99.4680313,9.52066123 C97.594938,9.52066123 96.7223695,10.2711841 96.7223695,10.9744299 C96.7162029,11.7589331 97.7398523,12.28489 99.4140739,13.0634836 C102.184402,14.2646156 103.467047,15.7242939 103.442381,17.6404909 L103.442381,17.6404909 Z M111.332497,16.7570014 C111.73024,15.7878224 113.241048,12.0425952 113.241048,12.0425952 C113.217923,12.0883949 113.632624,11.0675065 113.879287,10.4322214 L114.204573,11.8874675 C114.204573,11.8874675 115.120308,15.9089697 115.313013,16.7570014 L111.332497,16.7570014 Z M116.962568,6 L113.259547,6 C112.109484,6 111.247707,6.29991365 110.748215,7.40205938 L103.624294,22.8513059 L108.65775,22.8513059 C108.65775,22.8513059 109.482528,20.7740715 109.670608,20.3175527 C110.217891,20.3175527 115.114141,20.3293719 115.812504,20.3293719 C115.951252,20.9188574 116.390619,22.8513059 116.390619,22.8513059 L120.841335,22.8513059 L116.962568,6 Z" id="Page-1"></path>
            </g>
        </g>
    </g>
</svg>