<?xml version="1.0" encoding="UTF-8"?>
<svg width="22px" height="13px" viewBox="0 0 22 13" version="1.1" xmlns="http://www.w3.org/2000/svg" xmlns:xlink="http://www.w3.org/1999/xlink">
    <!-- Generator: Sketch 42 (36781) - http://www.bohemiancoding.com/sketch -->
    <title>ico/24 ss_vk w</title>
    <desc>Created with Sketch.</desc>
    <defs></defs>
    <g id="Symbols" stroke="none" stroke-width="1" fill="none" fill-rule="evenodd" opacity="0.5">
        <g id="footer" transform="translate(-779.000000, -170.000000)" fill="#FFFFFF">
            <g id="Group-13" transform="translate(730.000000, 164.000000)">
                <g id="ico/24-ss_vk-w" transform="translate(48.000000, 0.000000)">
                    <path d="M5.17318655,14.5623928 C6.02262508,15.7132816 6.99830083,16.7308619 8.25901429,17.4507457 C9.68690912,18.2668353 11.2238429,18.5130241 12.8447602,18.4380325 C13.6024454,18.4015407 13.8303009,18.2040659 13.8650467,17.4494362 C13.888618,16.9324398 13.9482446,16.4168402 14.2026396,15.9523117 C14.4530188,15.496426 14.8325162,15.4104345 15.2700687,15.6941627 C15.4883211,15.8370744 15.6718278,16.0164779 15.8457314,16.2081036 C16.2723712,16.6739416 16.6853049,17.1561049 17.1272224,17.6066653 C17.6831551,18.1723756 18.3420156,18.5058654 19.1692797,18.4380325 L22.3731383,18.4394293 C22.8888252,18.404247 23.1568392,17.7720133 22.8608016,17.1950412 C22.6525015,16.7919725 22.3786383,16.4335147 22.0894101,16.0857076 C21.4346528,15.2989512 20.6632613,14.6288289 19.9338616,13.9171513 C19.2760488,13.2753145 19.2344062,12.9029758 19.7626644,12.1618778 C20.3406842,11.352685 20.9606958,10.5757936 21.5430806,9.77105313 C22.0867038,9.01904249 22.6442952,8.26851597 22.929071,7.36922857 C23.1110935,6.79531193 22.9498486,6.54222639 22.3632733,6.44060805 C22.2620042,6.42393356 22.1562827,6.42393356 22.0536167,6.42393356 L18.5674267,6.41983041 C18.1377313,6.41302094 17.9014075,6.60054344 17.7499403,6.98152492 C17.5443465,7.49572769 17.3329035,8.01001776 17.0880243,8.50518892 C16.5352345,9.63084776 15.9162705,10.7190545 15.0491099,11.6394687 C14.857397,11.842007 14.6446445,12.0995449 14.3251229,11.9938234 C13.9260701,11.8478561 13.8081265,11.1893449 13.814936,10.9669893 L13.8118804,6.94258868 C13.7344445,6.36867204 13.6061993,6.11157065 13.034989,6 L9.41409355,6 C8.93184294,6 8.68836051,6.18795901 8.4298623,6.48940929 C8.28258555,6.66470966 8.23657794,6.77724062 8.54274247,6.83555768 C9.14293671,6.94939816 9.48332323,7.33884783 9.57228293,7.94078809 C9.71589304,8.9041544 9.70602803,9.87127466 9.62248099,10.8374346 C9.59925893,11.1194168 9.55045768,11.4000894 9.43897433,11.6643495 C9.26402317,12.0800768 8.98029498,12.1636238 8.60926582,11.9078319 C8.27437926,11.6770081 8.03805551,11.3519866 7.8058349,11.0253063 C6.93727745,9.79759263 6.24498068,8.47445898 5.67927033,7.08410357 C5.5165413,6.68243176 5.23455914,6.43964774 4.80931606,6.43248905 C3.76371223,6.41572727 2.71714808,6.41337014 1.67023472,6.43379857 C1.04201687,6.44471119 0.854494368,6.75096303 1.11159575,7.32182414 C2.24991323,9.85590968 3.51787267,12.3187576 5.17318655,14.5623928" id="Fill-1"></path>
                </g>
            </g>
        </g>
    </g>
</svg>