<?xml version="1.0" encoding="UTF-8"?>
<svg width="74px" height="75px" viewBox="0 0 74 75" version="1.1" xmlns="http://www.w3.org/2000/svg" xmlns:xlink="http://www.w3.org/1999/xlink">
    <!-- Generator: Sketch 42 (36781) - http://www.bohemiancoding.com/sketch -->
    <title>Page 1</title>
    <desc>Created with Sketch.</desc>
    <defs></defs>
    <g id="Desktop" stroke="none" stroke-width="1" fill="none" fill-rule="evenodd">
        <g id="d-01-01-home" transform="translate(-434.000000, -1736.000000)" stroke="#F36F2D" stroke-width="2">
            <g id="Group-8" transform="translate(130.000000, 1679.000000)">
                <g id="Group-6" transform="translate(293.000000, 57.000000)">
                    <g id="Page-1" transform="translate(11.000000, 0.000000)">
                        <path d="M36.5449685,0.000138888889 L36.5449685,3.64597222" id="Stroke-1"></path>
                        <path d="M27.0376815,1.32659722 L27.9688481,4.848125" id="Stroke-3"></path>
                        <path d="M18.1931056,5.10173611 L19.9917167,8.259375" id="Stroke-6"></path>
                        <path d="M10.6139296,11.0683333 L13.157337,13.6461111" id="Stroke-7"></path>
                        <path d="M4.81671481,18.8197917 L7.93225185,20.6427083" id="Stroke-8"></path>
                        <path d="M1.19647037,27.8277778 L4.67104444,28.7715278" id="Stroke-9"></path>
                        <path d="M0,37.4785417 L3.59722222,37.4785417" id="Stroke-11"></path>
                        <path d="M1.30877222,47.1143056 L4.7833463,46.1705556" id="Stroke-13"></path>
                        <path d="M5.03357593,56.0784028 L8.14911296,54.2554861" id="Stroke-16"></path>
                        <path d="M10.9206185,63.76 L13.4640259,61.1822222" id="Stroke-17"></path>
                        <path d="M18.5687241,69.6355556 L20.3673352,66.4779167" id="Stroke-18"></path>
                        <path d="M27.4566037,73.3047222 L28.3877704,69.7831944" id="Stroke-19"></path>
                        <path d="M36.9786907,74.5173611 L36.9786907,70.8715278" id="Stroke-21"></path>
                        <path d="M46.4859778,73.1909028 L45.5548111,69.669375" id="Stroke-23"></path>
                        <path d="M55.3305537,69.4157639 L53.5319426,66.258125" id="Stroke-26"></path>
                        <path d="M62.9097296,63.4491667 L60.3663222,60.8713889" id="Stroke-27"></path>
                        <path d="M68.7069444,55.6977083 L65.5914074,53.8747917" id="Stroke-28"></path>
                        <path d="M72.3271889,46.6897222 L68.8526148,45.7459722" id="Stroke-29"></path>
                        <path d="M73.5236593,37.0389583 L69.926437,37.0389583" id="Stroke-31"></path>
                        <path d="M72.214887,27.4031944 L68.740313,28.3469444" id="Stroke-33"></path>
                        <path d="M68.4900833,18.4390972 L65.3745463,20.2620139" id="Stroke-36"></path>
                        <path d="M62.6030407,10.7575 L60.0596333,13.3352778" id="Stroke-37"></path>
                        <path d="M54.9549352,4.88194444 L53.1563241,8.03958333" id="Stroke-38"></path>
                        <path d="M46.0670556,1.21277778 L45.1358889,4.73430556" id="Stroke-39"></path>
                        <path d="M56.4115019,23.5418056 C54.0400759,21.0161111 50.8820574,19.6251389 47.5177981,19.6244444 L47.517113,19.6244444 C44.1528537,19.6244444 40.9934648,21.0154167 38.6220389,23.5418056 L36.97965,25.2918056 L35.3365759,23.5438889 C32.9658352,21.0168056 29.8064463,19.6258333 26.4408167,19.6258333 C23.0765574,19.6258333 19.9178537,21.0168056 17.547113,23.5431944 C12.7501315,28.6508333 12.7275204,36.7598611 17.4950389,42.4043056 C22.079613,47.8313889 35.8730759,59.7744444 36.0128537,59.8945833 C36.2725389,60.1181944 36.620613,60.2418056 36.9940389,60.2438889 C37.3612981,60.2438889 37.6710019,60.13 37.9430204,59.8945833 C38.0800574,59.7765278 51.9009278,47.8056944 56.4649463,42.4029167 C61.2297241,36.7605556 61.207113,28.6522222 56.4115019,23.5418056 Z" id="Stroke-41"></path>
                        <path d="M53.0829407,26.0896528 C54.9987185,27.936875 55.8154593,30.093125 55.8154593,33.0125694" id="Stroke-43"></path>
                        <path d="M49.321137,24.1565278 C50.1878963,24.2870833 50.9532481,24.5620833 51.5959519,24.9329167" id="Stroke-45"></path>
                        <path d="M54.6892204,37.3601389 C54.2520722,38.0851389 53.7142019,38.7601389 53.0831463,39.3684722" id="Stroke-47"></path>
                    </g>
                </g>
            </g>
        </g>
    </g>
</svg>