<svg width="96" height="57" viewBox="0 0 96 57" xmlns="http://www.w3.org/2000/svg"><title>Page 1</title><g stroke="#EFC519" stroke-width="2" fill="none" fill-rule="evenodd"><path d="M11.367 8.858V1m-.664 0h54.905v46.46H34.595M11.367 32.804V47.46h7.29m46.951-33.8h15.815l13.344 18.209v15.59H88.05m-22.442.001h7.166"/><path d="M17.669 33.615h41.515V7.298H17.669zm53.623-14.468h7.29l9.513 14.468H71.292zm20.633 20.33h2.842M2.039 14.345H25.76M7.104 20.457h24.65M2.718 26.88h6.487m3.892 0h12.17m8.711-12.535h2.162M11.367 39.789h3.336M0 20.457h1.915M25.761 47.46h2.224m51.091 0H81.3m-46.565-.048c0 4.383-3.52 7.936-7.862 7.936-4.341 0-7.86-3.553-7.86-7.936 0-4.382 3.519-7.935 7.86-7.935 4.342 0 7.862 3.553 7.862 7.935zm53.314.156c0 4.383-3.52 7.936-7.861 7.936-4.342 0-7.862-3.553-7.862-7.936 0-4.382 3.52-7.935 7.862-7.935 4.34 0 7.86 3.553 7.86 7.935z"/><path d="M31.02 47.412c0 2.313-1.856 4.187-4.147 4.187-2.29 0-4.147-1.874-4.147-4.187 0-2.312 1.857-4.186 4.147-4.186 2.291 0 4.148 1.874 4.148 4.186zm53.315.156c0 2.312-1.857 4.187-4.147 4.187s-4.147-1.875-4.147-4.187c0-2.312 1.856-4.186 4.147-4.186 2.29 0 4.147 1.874 4.147 4.186zM29.839 26.88h1.915"/></g></svg>