<svg width="70" height="70" viewBox="0 0 70 70" xmlns="http://www.w3.org/2000/svg" xmlns:xlink="http://www.w3.org/1999/xlink"><title>Page 1</title><defs><path id="a" d="M0 69.526h69.526V0H0z"/></defs><g fill="none" fill-rule="evenodd"><path d="M34.214 27.365l8.5-8.501 8.078 8.975.228-.299a10.375 10.375 0 0 0 2.16-6.354c0-5.787-4.71-10.496-10.497-10.496s-10.496 4.709-10.496 10.496c0 2.086.628 4.114 1.815 5.866l.212.313zM62.231 43l-19.58-21.755-7.588 7.59 8.003 8.537-1.194 1.119-16.148-17.226L6.162 43l-1.216-1.096 20.753-23.06 5.255 5.605-.197-1.051a12.065 12.065 0 0 1-.207-2.211c0-6.691 5.443-12.135 12.133-12.135 6.69 0 12.134 5.444 12.134 12.135 0 2.827-.95 5.481-2.75 7.673l-.17.208 11.551 12.836L62.231 43zm-6.337-2.267h-1.638m-2.888 0H49.73m-2.888 0h-1.638" fill="#A71E5D"/><mask id="b" fill="#fff"><use xlink:href="#a"/></mask><path fill="#A71E5D" mask="url(#b)" d="M0 37.026h1.638V22.962H0zm40.14 18.923h3.363V54.31H40.14z"/><path d="M31.056 4.526h7.414V1.638h-7.414v2.888zM1.638 6.164h61.81V4.526h-23.34V0h-10.69v4.526H0v19.33h1.638V6.164z" fill="#A71E5D" mask="url(#b)"/><path d="M60.841 67.888h-5.09L50.55 49.16h5.088l5.204 18.728zm-42.853-9.052l.804-2.888h14.137v-1.637H19.246l1.43-5.151H48.85l1.431 5.15h-3.89v1.638h4.345l.803 2.888h-33.55zm-4.214 9.052h-5.09l5.204-18.728h5.088l-5.202 18.728zM69.526 4.526h-8.685v1.638h7.047V47.52H1.638V34.763H0V49.16h12.187L6.53 69.527h8.489l2.514-9.053h34.459l2.514 9.053h8.489L57.337 49.16h12.19V4.526z" fill="#A71E5D" mask="url(#b)"/><path d="M12.137 13.353h2.504m6.695 0h2.504" stroke="#A71E5D" stroke-width="2" mask="url(#b)"/></g></svg>