<svg width="38" height="37" viewBox="0 0 38 37" xmlns="http://www.w3.org/2000/svg"><title>Group 2</title><path d="M36.284 16.85c.367-.01.771.278.791.936.027.909-.597 1.467-.597 1.467l1.034-.03c.193-.287.426-.778.405-1.461-.035-1.182-.863-1.828-1.661-1.804-1.844.055-1.905 2.724-3.143 2.762-.64.019-.899-.51-.914-1.038-.032-1.054.85-1.667.854-1.672l-1.148.034c-.243.348-.57.952-.55 1.664.034 1.084.737 1.935 1.785 1.904 1.796-.053 1.84-2.722 3.144-2.761M4.406 6.146L1.96 9.852l.68.446.966-1.462 4.67 3.067.516-.78L4.12 8.055l.965-1.462zM1.587 18.75c-.367-.009-.757-.316-.744-.974.018-.908.67-1.435.67-1.435L.48 16.32A2.46 2.46 0 0 0 0 17.759c-.023 1.18.771 1.868 1.57 1.884 1.844.037 2.04-2.627 3.277-2.602.64.012.872.552.862 1.081-.022 1.055-.933 1.623-.938 1.628l1.148.022c.261-.335.617-.921.632-1.633.022-1.086-.638-1.971-1.686-1.99-1.796-.037-1.973 2.626-3.278 2.6m1.417 8.341l-.664.47 2.163 3.033 5.22-3.706-2.163-3.03-.664.47 1.62 2.27-1.657 1.177-1.466-2.055-.664.47 1.466 2.057-1.57 1.115zm11.971 6.9l-.603 1.832-.775-.255c-.517-.17-.824-.648-.648-1.181.211-.642.734-.82 1.251-.65l.775.254zm-2.447-4.633l1.157 3.575c-.624-.037-1.374.373-1.634 1.16-.335 1.018.26 1.92 1.288 2.258l1.665.545 1.999-6.072-.89-.291-.889 2.7-.651-.213-1.012-3.323-1.033-.339zM24.002 30.6c1.24-.508 2.624 0 3.165 1.311.54 1.314-.086 2.643-1.327 3.152-1.24.508-2.623.002-3.165-1.312-.54-1.312.087-2.643 1.327-3.15m2.167 5.258c1.75-.718 2.646-2.565 1.92-4.326-.724-1.76-2.665-2.446-4.416-1.73-1.75.718-2.646 2.566-1.921 4.328.725 1.761 2.666 2.445 4.417 1.728m7.639-5.643l2.355-3.765-.692-.43-.93 1.486-4.743-2.952-.496.792 4.744 2.953-.93 1.486zm-.403-24.127l-.908 2.793 2.942.102.608.866-3.906-.149-2.698 1.886-.536-.764 2.697-1.886 1.192-3.715zm-9.839-3.185l.67-1.808.766.282c.51.188.798.679.603 1.205-.234.633-.763.792-1.274.604l-.765-.283zm2.275 4.72l-1.025-3.616c.623.06 1.388-.322 1.676-1.099.372-1.004-.189-1.929-1.205-2.303L23.644 0l-2.22 5.994.877.324.988-2.666.643.238.888 3.357 1.02.376zm-11.43-1.696c-1.26.457-2.62-.106-3.107-1.44-.486-1.333.195-2.638 1.456-3.095 1.26-.456 2.621.107 3.106 1.442.487 1.333-.194 2.637-1.455 3.093M12.465.584c-1.779.645-2.751 2.455-2.1 4.244.652 1.789 2.562 2.554 4.341 1.91 1.778-.646 2.751-2.455 2.1-4.245C16.152.705 14.242-.06 12.464.583m3.514 15.255a3 3 0 0 0 1.523 2.594l-1.692 5.424h6.302l-1.693-5.424a3 3 0 0 0 1.524-2.594 2.981 2.981 0 0 0-5.964 0" fill="#FFF" fill-rule="evenodd" opacity=".5"/></svg>