<svg width="220" height="56" viewBox="0 0 220 56" xmlns="http://www.w3.org/2000/svg" xmlns:xlink="http://www.w3.org/1999/xlink"><title>logo</title><defs><path d="M1.02 14.83c0 5.275 2.92 10.222 7.502 12.807L.189 54.425h31.037l-8.334-26.788c4.582-2.585 7.504-7.532 7.504-12.807 0-8.1-6.59-14.688-14.688-14.688S1.02 6.73 1.02 14.83z" id="a"/></defs><g fill="none" fill-rule="evenodd"><path fill="#FFF" d="M219.479 26.516v-2.571h-11.765v20.209h11.765v-2.571h-8.813v-6.415h7.976v-2.57h-7.976v-6.082zM42.07 41.678c-4.228 0-7.654-3.14-7.654-7.628 0-4.49 3.426-7.628 7.654-7.628 4.23 0 7.657 3.139 7.657 7.628 0 4.488-3.428 7.628-7.657 7.628m0-17.978c-5.967 0-10.804 4.33-10.804 10.35S36.103 44.4 42.07 44.4c5.969 0 10.806-4.33 10.806-10.35S48.04 23.7 42.07 23.7M60.875 32.645V26.55h2.573c1.717 0 3.108 1.14 3.108 2.91 0 2.137-1.39 3.185-3.108 3.185h-2.573zm11.906 11.51l-6.997-9.603c1.907-.504 3.751-2.473 3.751-5.091 0-3.387-2.671-5.516-6.087-5.516h-5.525v20.21h2.952v-8.987h2.163l6.31 8.986h3.433zM76.851 23.945l5.588 7.413 5.59-7.413h3.345l-7.458 9.82v10.389h-2.952V33.765l-7.458-9.82zM29.024 23.945h-14.03v2.571h5.54v17.638h2.95V26.516h5.54zM2.963 28.766c0-1.16.948-2.408 3.03-2.408 2.874 0 4.58 2.024 4.58 2.024v-3.266c-.887-.634-2.416-1.415-4.58-1.415-3.735 0-5.856 2.548-5.856 5.065 0 5.82 8.43 6.267 8.43 10.172 0 2.02-1.692 2.785-3.363 2.785-3.337 0-5.188-2.836-5.204-2.852v3.62c1.078.802 2.955 1.889 5.204 1.889 3.433 0 6.188-2.137 6.188-5.442 0-5.665-8.43-6.056-8.43-10.172M173.057 41.678c-4.23 0-7.656-3.14-7.656-7.628 0-4.49 3.426-7.628 7.656-7.628 4.229 0 7.657 3.139 7.657 7.628 0 4.488-3.428 7.628-7.657 7.628m0-17.978c-5.967 0-10.804 4.33-10.804 10.35s4.837 10.35 10.804 10.35c5.97 0 10.806-4.33 10.806-10.35s-4.837-10.35-10.806-10.35M191.864 32.645V26.55h2.573c1.716 0 3.108 1.14 3.108 2.91 0 2.137-1.392 3.185-3.108 3.185h-2.573zm11.904 11.51l-6.995-9.603c1.905-.504 3.75-2.473 3.75-5.091 0-3.387-2.67-5.516-6.086-5.516h-5.528v20.21h2.955v-8.987h2.161l6.31 8.986h3.433zM160.01 23.945h-14.027v2.571h5.536v17.638h2.954V26.516h5.537zM133.95 28.766c0-1.16.948-2.408 3.032-2.408 2.873 0 4.578 2.024 4.578 2.024v-3.266c-.886-.634-2.417-1.415-4.578-1.415-3.736 0-5.859 2.548-5.859 5.065 0 5.82 8.432 6.267 8.432 10.172 0 2.02-1.692 2.785-3.362 2.785-3.34 0-5.191-2.836-5.206-2.852v3.62c1.08.802 2.955 1.889 5.206 1.889 3.431 0 6.188-2.137 6.188-5.442 0-5.665-8.43-6.056-8.43-10.172"/><g transform="translate(95.052 .625)"><mask id="b" fill="#fff"><use xlink:href="#a"/></mask><path fill="#EFC519" mask="url(#b)" d="M-18.283 37.703l-5.62-5.617L19.624-11.44l5.618 5.62z"/><path fill="#F36F2C" mask="url(#b)" d="M-12.666 43.323l-5.617-5.62L25.242-5.821 30.86-.202z"/><path fill="#E7234F" mask="url(#b)" d="M-7.048 48.94l-5.618-5.618L30.859-.203l5.62 5.619z"/><path fill="#A71E5D" mask="url(#b)" d="M-1.43 54.559l-5.618-5.619L36.479 5.414l5.616 5.62z"/><path fill="#652267" mask="url(#b)" d="M4.188 60.177l-5.617-5.619 43.525-43.525 5.62 5.619z"/><path fill="#2AA2DC" mask="url(#b)" d="M9.807 65.794l-5.62-5.618 43.528-43.525 5.619 5.619z"/><path fill="#82C441" mask="url(#b)" d="M15.425 71.413l-5.618-5.619L53.334 22.27l5.616 5.618z"/></g></g></svg>