<svg width="40" height="31" viewBox="0 0 40 31" xmlns="http://www.w3.org/2000/svg"><title>mc_vrt_solid_rev</title><path d="M19.786 2.633a12.29 12.29 0 0 0-4.67 9.662 12.29 12.29 0 0 0 4.67 9.66 12.29 12.29 0 0 0 4.67-9.661 12.289 12.289 0 0 0-4.67-9.66zM27.343 0c-2.503 0-4.83.757-6.77 2.055.1.082.2.162.296.246a13.275 13.275 0 0 1 4.533 9.994c0 3.83-1.651 7.473-4.532 9.993-.096.084-.197.165-.296.246a12.126 12.126 0 0 0 6.77 2.055c6.753 0 12.228-5.504 12.228-12.294C39.572 5.505 34.097 0 27.343 0zm-8.64 22.288c.095.084.196.164.295.246a12.122 12.122 0 0 1-6.77 2.055C5.475 24.59 0 19.085 0 12.295 0 5.505 5.475 0 12.228 0c2.504 0 4.832.757 6.77 2.055-.1.082-.2.162-.296.246a13.276 13.276 0 0 0-4.533 9.994c0 3.831 1.653 7.473 4.533 9.993zm20.486-2.375v-.477h-.124l-.143.328-.142-.328h-.124v.477h.087v-.36l.134.31h.09l.134-.31v.36h.088zm-.785 0v-.396h.159v-.08h-.405v.08h.159v.396h.087zm.382 10.615v.08h.073a.074.074 0 0 0 .04-.01.033.033 0 0 0 .016-.03c0-.014-.005-.024-.015-.03a.073.073 0 0 0-.04-.01h-.074zm.074-.057c.039 0 .068.009.09.026.02.017.03.04.03.07a.083.083 0 0 1-.024.062.12.12 0 0 1-.071.03l.098.113h-.077l-.09-.113h-.03v.113h-.064v-.3h.138zm-.019.405a.242.242 0 0 0 .177-.074.245.245 0 0 0 .072-.18.251.251 0 0 0-.428-.178.256.256 0 0 0 0 .358.254.254 0 0 0 .18.074zm0-.578a.32.32 0 0 1 .232.096.316.316 0 0 1 .07.355.33.33 0 0 1-.302.198.33.33 0 0 1-.305-.199.316.316 0 0 1 .07-.355.33.33 0 0 1 .235-.095zM8.551 29.14c0-.573.373-1.044.984-1.044.585 0 .979.45.979 1.044 0 .594-.394 1.045-.979 1.045-.61 0-.984-.471-.984-1.045zm2.628 0v-1.632h-.706v.396c-.224-.293-.564-.478-1.026-.478-.91 0-1.623.717-1.623 1.714s.713 1.715 1.623 1.715c.462 0 .802-.185 1.026-.478v.396h.706V29.14zm23.856 0c0-.573.374-1.044.985-1.044.584 0 .978.45.978 1.044 0 .594-.394 1.045-.978 1.045-.611 0-.985-.471-.985-1.045zm2.629 0v-2.943h-.707v1.707c-.224-.293-.564-.478-1.025-.478-.91 0-1.624.717-1.624 1.714s.713 1.715 1.624 1.715c.461 0 .801-.185 1.025-.478v.396h.707V29.14zm-17.722-1.08c.455 0 .747.287.822.792h-1.685c.075-.47.36-.792.863-.792zm.013-.635c-.95 0-1.616.697-1.616 1.714 0 1.038.692 1.715 1.664 1.715.49 0 .937-.124 1.331-.458l-.346-.526a1.542 1.542 0 0 1-.944.342c-.455 0-.87-.212-.972-.8h2.412c.007-.088.013-.177.013-.273-.006-1.017-.631-1.714-1.542-1.714zm8.525 1.714c0-.573.374-1.044.985-1.044.584 0 .978.45.978 1.044 0 .594-.394 1.045-.978 1.045-.611 0-.985-.471-.985-1.045zm2.629 0v-1.632h-.706v.396c-.225-.293-.564-.478-1.026-.478-.91 0-1.624.717-1.624 1.714s.714 1.715 1.624 1.715c.462 0 .801-.185 1.026-.478v.396h.706v-1.633zm-6.616 0c0 .99.686 1.715 1.732 1.715.49 0 .815-.11 1.168-.39l-.34-.573a1.422 1.422 0 0 1-.848.293c-.564-.007-.978-.416-.978-1.045 0-.628.414-1.038.978-1.044.305 0 .584.102.849.293l.34-.573c-.354-.28-.68-.39-1.169-.39-1.046 0-1.732.724-1.732 1.714zm9.102-1.714c-.407 0-.672.191-.856.478v-.396h-.7v3.265h.707v-1.83c0-.54.23-.84.693-.84.143 0 .292.02.441.081l.218-.669a1.505 1.505 0 0 0-.503-.089zm-18.924.342c-.34-.226-.809-.342-1.325-.342-.822 0-1.352.396-1.352 1.045 0 .533.394.86 1.121.963l.333.048c.387.054.57.157.57.341 0 .253-.258.396-.74.396-.489 0-.842-.157-1.08-.341l-.333.553c.388.287.877.424 1.407.424.937 0 1.48-.444 1.48-1.066 0-.574-.428-.874-1.134-.977l-.333-.047c-.306-.041-.55-.103-.55-.321 0-.24.23-.383.618-.383.414 0 .815.157 1.012.28l.306-.573zm9.109-.342c-.408 0-.673.191-.856.478v-.396h-.7v3.265h.707v-1.83c0-.54.23-.84.693-.84.142 0 .292.02.44.081l.218-.669a1.502 1.502 0 0 0-.502-.089zm-6.025.082H16.6v-.99h-.713v.99h-.66v.649h.66v1.489c0 .758.292 1.209 1.127 1.209.306 0 .66-.096.883-.253l-.204-.608c-.21.123-.441.184-.625.184-.353 0-.468-.218-.468-.546v-1.475h1.155v-.649zM7.199 30.772v-2.05c0-.77-.49-1.29-1.277-1.297-.414-.007-.842.123-1.141.58-.225-.361-.578-.58-1.073-.58-.347 0-.687.103-.952.485v-.403H2.05v3.265h.713v-1.81c0-.567.313-.867.795-.867.469 0 .706.307.706.86v1.817h.714v-1.81c0-.567.326-.867.794-.867.483 0 .713.307.713.86v1.817H7.2z" fill="#FFF" fill-rule="evenodd" fill-opacity=".5"/></svg>