<svg width="51" height="80" viewBox="0 0 51 80" xmlns="http://www.w3.org/2000/svg"><title>Page 1</title><g stroke-width="2" stroke="#E7234F" fill="none" fill-rule="evenodd"><path d="M25.864 4.541l6.364-2.43 4.291 5.273 6.732 1.063 1.069 6.703 5.296 4.272-2.441 6.336 2.44 6.336-5.295 4.273-1.069 6.702-6.732 1.064-4.29 5.272-6.365-2.43-6.365 2.43-4.29-5.272-6.733-1.064-1.068-6.702-5.296-4.273 2.441-6.336-2.441-6.336 5.296-4.272 1.068-6.703 6.732-1.063L19.5 2.112z"/><path d="M15.208 44.133v33.581l10.656-6.525 10.91 6.525V44.133m-22.76-12.538a13.331 13.331 0 0 1-1.52-6.201c0-7.422 6.043-13.438 13.497-13.438 7.455 0 13.497 6.016 13.497 13.438 0 2.145-.505 4.173-1.403 5.972m-22.667 2.382c-.25-.314-.487-.64-.71-.976m19.09 3.585a13.475 13.475 0 0 1-7.807 2.475c-3.083 0-5.925-1.03-8.198-2.762m17.81-1.178l1.171-1.144"/></g></svg>