<?xml version="1.0" encoding="UTF-8"?>
<svg width="51px" height="80px" viewBox="0 0 51 80" version="1.1" xmlns="http://www.w3.org/2000/svg" xmlns:xlink="http://www.w3.org/1999/xlink">
    <!-- Generator: Sketch 42 (36781) - http://www.bohemiancoding.com/sketch -->
    <title>Page 1</title>
    <desc>Created with Sketch.</desc>
    <defs></defs>
    <g id="Desktop" stroke="none" stroke-width="1" fill="none" fill-rule="evenodd">
        <g id="d-01-01-home" transform="translate(-642.000000, -1733.000000)" stroke-width="2" stroke="#E7234F">
            <g id="Group-8" transform="translate(130.000000, 1679.000000)">
                <g id="Group-4" transform="translate(477.000000, 56.000000)">
                    <g id="Page-1" transform="translate(37.000000, 0.000000)">
                        <polygon id="Stroke-1" points="23.8638072 2.54127879 30.2281446 0.111581818 34.5192289 5.38379394 41.2513735 6.44721818 42.3195181 13.1496121 47.6157108 17.4217333 45.1746506 23.7579455 47.6157108 30.0941576 42.3195181 34.3668545 41.2513735 41.0686727 34.5192289 42.1326727 30.2281446 47.4048848 23.8638072 44.9751879 17.4994699 47.4048848 13.2083855 42.1326727 6.47624096 41.0686727 5.40809639 34.3668545 0.111903614 30.0941576 2.55296386 23.7579455 0.111903614 17.4217333 5.40809639 13.1496121 6.47624096 6.44721818 13.2083855 5.38379394 17.4994699 0.111581818"></polygon>
                        <polyline id="Stroke-3" points="13.2082699 42.1325576 13.2082699 75.7141939 23.8636916 69.1891333 34.7741494 75.7141939 34.7741494 42.1325576"></polyline>
                        <path d="M12.0136482,29.594803 C11.0426602,27.7397121 10.493841,25.6307121 10.493841,23.3938939 C10.493841,15.9723788 16.5366361,9.95571212 23.991094,9.95571212 C31.4455518,9.95571212 37.488347,15.9723788 37.488347,23.3938939 C37.488347,25.5391667 36.9834795,27.5669848 36.085359,29.3662273" id="Stroke-5"></path>
                        <path d="M13.4183133,31.7476758 C13.1679036,31.4338879 12.9307952,31.1080091 12.7087229,30.7723424" id="Stroke-7"></path>
                        <path d="M31.7980337,34.3569515 C29.5940819,35.9155273 26.9002988,36.8315576 23.9913831,36.8315576 C20.9078169,36.8315576 18.0659855,35.802103 15.7932145,34.0696485" id="Stroke-9"></path>
                        <path d="M33.6029494,32.892397 L34.7740337,31.7477909" id="Stroke-11"></path>
                    </g>
                </g>
            </g>
        </g>
    </g>
</svg>