<svg width="24" height="24" viewBox="0 0 24 24" xmlns="http://www.w3.org/2000/svg"><title>ico/24 phone w</title><path d="M4.844 15.953c-1.95-2.34-3.262-4.534-4.132-6.897-.567-1.526-.785-2.79-.69-3.978a3.83 3.83 0 0 1 1.137-2.447L3.02.77C3.552.265 4.16 0 4.79 0c.636 0 1.238.264 1.75.766.34.313.682.662 1.01 1 .17.174.333.343.507.517L9.54 3.765c.54.537.824 1.16.824 1.79 0 .632-.288 1.253-.825 1.79-.155.155-.31.31-.46.463-.42.432-.858.875-1.326 1.298.333.77.81 1.526 1.522 2.427 1.407 1.726 2.88 3.068 4.5 4.098.164.105.35.2.547.3.16.08.33.163.492.257l1.78-1.78c.523-.522 1.134-.8 1.77-.8.638 0 1.244.278 1.752.805l2.988 2.99c1.07 1.068 1.07 2.47.01 3.575-.228.238-.467.472-.7.696-.344.333-.672.646-.96.995a.139.139 0 0 1-.02.024c-.81.88-1.806 1.308-3.044 1.308-.113 0-.223-.005-.337-.01-1.845-.12-3.5-.816-4.74-1.403-3.25-1.576-6.1-3.803-8.47-6.634zm-3.61-10.77c-.08 1 .115 2.098.626 3.466.826 2.226 2.074 4.305 3.93 6.538 2.252 2.695 4.968 4.82 8.06 6.316 1.14.542 2.656 1.178 4.287 1.282.085.005.174.01.26.01.88 0 1.56-.288 2.132-.905.327-.39.69-.74 1.04-1.078.233-.223.45-.437.66-.66.607-.633.612-1.28.015-1.876l-3-2.994c-.193-.208-.5-.443-.88-.443-.307 0-.62.154-.91.442l-1.86 1.86c-.083.085-.342.338-.74.338-.16 0-.318-.04-.482-.124l-.055-.03a5.873 5.873 0 0 0-.547-.298c-.213-.11-.44-.22-.655-.358-1.73-1.1-3.303-2.527-4.795-4.367-.83-1.044-1.362-1.92-1.745-2.84-.005-.014-.01-.024-.014-.04-.1-.297-.164-.69.25-1.103l.024-.024c.477-.423.91-.866 1.372-1.334.155-.154.31-.313.463-.467.307-.308.466-.622.466-.93 0-.31-.16-.622-.467-.93L7.186 3.153c-.174-.178-.348-.353-.517-.527-.338-.343-.652-.667-.985-.975-.284-.287-.592-.43-.895-.43-.308 0-.626.143-.915.42l-1.85 1.85c-.478.48-.73 1.03-.79 1.692z" fill="#FFF" fill-rule="evenodd"/></svg>