<svg xmlns="http://www.w3.org/2000/svg" xmlns:xlink="http://www.w3.org/1999/xlink" width="24" height="24" viewBox="0 0 24 24"><defs><path id="a" d="M4.844 15.953C2.895 13.612 1.582 11.42.712 9.056.145 7.53-.073 6.266.022 5.078c.079-.95.462-1.77 1.137-2.447L3.02.77C3.553.264 4.16 0 4.79 0c.637 0 1.24.264 1.751.766.339.313.682.662 1.01 1 .17.174.333.343.507.517L9.54 3.765c.542.537.825 1.159.825 1.79 0 .632-.288 1.253-.825 1.79l-.458.463c-.422.432-.86.875-1.327 1.298.333.77.81 1.526 1.522 2.427 1.407 1.726 2.879 3.068 4.5 4.098.164.104.349.199.547.298.159.08.329.164.492.258l1.78-1.78c.523-.522 1.134-.8 1.77-.8.638 0 1.244.278 1.752.805l2.988 2.989c1.07 1.069 1.07 2.471.01 3.576-.228.238-.467.472-.7.696-.344.333-.672.646-.96.995a.193.193 0 0 1-.02.024c-.811.88-1.806 1.308-3.044 1.308-.114 0-.224-.005-.338-.01-1.845-.12-3.501-.816-4.739-1.403a25.452 25.452 0 0 1-8.47-6.634zm-3.61-10.77c-.079.999.115 2.098.626 3.466.826 2.227 2.074 4.306 3.93 6.54 2.252 2.694 4.968 4.818 8.06 6.315 1.14.542 2.656 1.178 4.287 1.282.085.005.174.01.259.01.88 0 1.562-.288 2.133-.905.328-.392.692-.741 1.04-1.079.234-.223.452-.437.661-.66.607-.633.612-1.279.015-1.876l-2.999-2.994c-.194-.208-.501-.443-.88-.443-.308 0-.621.155-.91.443l-1.86 1.86c-.084.085-.343.338-.74.338-.16 0-.319-.04-.483-.124l-.055-.03a6.086 6.086 0 0 0-.547-.298c-.214-.11-.442-.219-.656-.358-1.731-1.1-3.303-2.527-4.795-4.367-.83-1.044-1.362-1.92-1.745-2.84-.005-.014-.01-.024-.014-.039-.1-.298-.165-.69.248-1.104l.025-.024c.477-.423.91-.866 1.372-1.334.155-.154.309-.313.463-.467.308-.308.467-.622.467-.93 0-.309-.159-.622-.467-.93L7.187 3.153c-.174-.178-.348-.353-.517-.527-.338-.343-.652-.667-.985-.975-.284-.288-.592-.432-.895-.432-.308 0-.626.144-.915.422l-1.85 1.85a2.63 2.63 0 0 0-.79 1.691z"/></defs><use fill="#141414" xlink:href="#a" fill-rule="evenodd"/></svg>