<svg width="66" height="83" viewBox="0 0 66 83" xmlns="http://www.w3.org/2000/svg"><title>Page 1</title><g stroke="#2AA2DC" stroke-width="2" fill="none" fill-rule="evenodd"><path d="M8.408 39.474c-.048.632-.071 1.271-.071 1.916M10.01 32.31a25.113 25.113 0 0 0-1.352 5.027"/><path d="M1 41.39C1 23.504 15.203 9.005 32.723 9.005c.186 0 .372.002.557.005V3.24l9.904 9.479-9.62 9.596-.492.515v-6.333a26.01 26.01 0 0 0-.349-.002c-9.64 0-17.974 5.71-21.933 13.999M55.413 50.534c-3.57 9.225-12.383 15.751-22.69 15.751V59.37L22.66 69.87 32.723 79.98v-6.206c10.115 0 19.125-4.833 24.935-12.36a39.807 39.807 0 0 0 .837-1.135 31.727 31.727 0 0 0 1.218-1.862c3.001-4.947 4.734-10.78 4.734-17.027M56.805 45.345a25.129 25.129 0 0 1-.883 3.742M57.11 41.39c0 .743-.031 1.48-.094 2.207M46.032 41.39c0 7.503-5.958 13.585-13.308 13.585S19.415 48.893 19.415 41.39c0-7.503 5.958-13.586 13.309-13.586 7.35 0 13.308 6.083 13.308 13.586z"/><path d="M27.866 41.39l3.81 3.655 6.603-6.733M47.422 16.527l2.032 1.555M51.74 20.156l1.84 1.88M55.358 24.37l1.334 2.074M58.152 29.295l1.016 2.398M60.057 34.61l.318 2.333M18.33 66.24l-2.033-1.556M14.012 62.61l-1.842-1.88M10.393 58.397L9.06 56.323M7.6 53.471l-1.016-2.398M5.694 48.156l-.317-2.333"/></g></svg>