<?xml version="1.0" encoding="UTF-8"?>
<svg width="66px" height="83px" viewBox="0 0 66 83" version="1.1" xmlns="http://www.w3.org/2000/svg" xmlns:xlink="http://www.w3.org/1999/xlink">
    <!-- Generator: Sketch 42 (36781) - http://www.bohemiancoding.com/sketch -->
    <title>Page 1</title>
    <desc>Created with Sketch.</desc>
    <defs></defs>
    <g id="Desktop" stroke="none" stroke-width="1" fill="none" fill-rule="evenodd">
        <g id="d-01-01-home" transform="translate(-1126.000000, -1732.000000)" stroke="#2AA2DC" stroke-width="2">
            <g id="Group-8" transform="translate(130.000000, 1679.000000)">
                <g id="Group-2" transform="translate(959.000000, 56.000000)">
                    <g id="Page-1" transform="translate(38.000000, 0.000000)">
                        <path d="M7.40754286,36.4737333 C7.36030476,37.1060667 7.33668571,37.7454 7.33668571,38.3901778" id="Stroke-1"></path>
                        <path d="M9.00944762,29.3095444 C8.39459048,30.9109889 7.93744762,32.5933222 7.65782857,34.3371" id="Stroke-3"></path>
                        <path d="M0,38.3897889 C0,20.5040111 14.2034286,6.00545556 31.7234286,6.00545556 C31.9093333,6.00545556 32.0952381,6.00701111 32.280381,6.01012222 L32.280381,0.239788889 L42.183619,9.71856667 L32.5645714,19.3147889 L32.072381,19.8296778 L32.072381,13.4970111 C31.9565714,13.4954556 31.84,13.4946778 31.7234286,13.4946778 C22.0830476,13.4946778 13.7485714,19.2051222 9.78971429,27.4939" id="Stroke-5"></path>
                        <path d="M54.4129524,47.5343556 C50.8426667,56.7588 42.0297143,63.2851333 31.7234286,63.2851333 L31.7234286,56.3691333 L21.6601905,66.8691333 L31.7234286,76.9802444 L31.7234286,70.7743556 C41.8384762,70.7743556 50.848,65.9412444 56.6575238,58.4146889 C56.7946667,58.2358 56.9310476,58.0553556 57.0651429,57.8741333 C57.2106667,57.6773556 57.3539048,57.4790222 57.4948571,57.2791333 C57.68,57.0162444 57.8613333,56.7502444 58.0388571,56.4811333 C58.2704762,56.1311333 58.4952381,55.7764667 58.7131429,55.4171333 C61.7142857,50.4696889 63.4468571,44.6363556 63.4468571,38.3900222" id="Stroke-7"></path>
                        <path d="M55.8047238,42.3447889 C55.6043429,43.6281222 55.3072,44.8780111 54.9224381,46.0874556" id="Stroke-9"></path>
                        <path d="M56.110781,38.3897889 C56.110781,39.1333444 56.078781,39.8699 56.0163048,40.5971222" id="Stroke-11"></path>
                        <path d="M45.0317714,38.3897889 C45.0317714,45.8930111 39.0736762,51.9752333 31.723581,51.9752333 C24.3734857,51.9752333 18.4153905,45.8930111 18.4153905,38.3897889 C18.4153905,30.8865667 24.3734857,24.8043444 31.723581,24.8043444 C39.0736762,24.8043444 45.0317714,30.8865667 45.0317714,38.3897889 Z" id="Stroke-13"></path>
                        <polyline id="Stroke-15" points="26.8663619 38.3897889 30.6758857 42.0453444 37.2793143 35.3121222"></polyline>
                        <path d="M46.4218667,13.5266444 L48.4538667,15.0822" id="Stroke-17"></path>
                        <path d="M50.7393524,17.1562222 L52.5808762,19.0361111" id="Stroke-19"></path>
                        <path d="M54.3584,21.3692111 L55.6917333,23.4435444" id="Stroke-21"></path>
                        <path d="M57.1520762,26.2951111 L58.1676952,28.693" id="Stroke-23"></path>
                        <path d="M59.0568381,31.6099778 L59.3745524,33.9433111" id="Stroke-25"></path>
                        <path d="M17.3294476,63.2395556 L15.2974476,61.684" id="Stroke-27"></path>
                        <path d="M13.0119619,59.6099778 L11.1704381,57.7300889" id="Stroke-29"></path>
                        <path d="M9.39291429,55.3969889 L8.05958095,53.3226556" id="Stroke-31"></path>
                        <path d="M6.5992381,50.4710889 L5.58361905,48.0732" id="Stroke-33"></path>
                        <path d="M4.69447619,45.1562222 L4.3767619,42.8228889" id="Stroke-35"></path>
                    </g>
                </g>
            </g>
        </g>
    </g>
</svg>