<svg width="66" height="83" viewBox="0 0 66 83" xmlns="http://www.w3.org/2000/svg"><title>Page 1</title><g stroke="#2AA2DC" stroke-width="2" fill="none" fill-rule="evenodd"><path d="M8.408 39.474a25.3 25.3 0 0 0-.071 1.916m1.673-9.08a25.113 25.113 0 0 0-1.352 5.027"/><path d="M1 41.39C1 23.504 15.203 9.005 32.723 9.005c.186 0 .372.002.557.005V3.24l9.904 9.479-9.62 9.596-.492.515v-6.333a26.01 26.01 0 0 0-.349-.002c-9.64 0-17.974 5.71-21.933 13.999m44.623 20.04c-3.57 9.225-12.383 15.751-22.69 15.751V59.37L22.66 69.87l10.063 10.11v-6.206c10.115 0 19.125-4.833 24.935-12.36a39.807 39.807 0 0 0 .837-1.135 31.727 31.727 0 0 0 1.218-1.862c3.001-4.947 4.734-10.78 4.734-17.027m-7.642 3.955a25.129 25.129 0 0 1-.883 3.742m1.188-7.697c0 .743-.031 1.48-.094 2.207M46.032 41.39c0 7.503-5.958 13.585-13.308 13.585S19.415 48.893 19.415 41.39c0-7.503 5.958-13.586 13.309-13.586 7.35 0 13.308 6.083 13.308 13.586z"/><path d="M27.866 41.39l3.81 3.655 6.603-6.733m9.143-21.785l2.032 1.555m2.286 2.074l1.84 1.88m1.778 2.334l1.334 2.074m1.46 2.851l1.016 2.398m.889 2.917l.318 2.333M18.33 66.24l-2.033-1.556m-2.285-2.074l-1.842-1.88m-1.777-2.333L9.06 56.323M7.6 53.471l-1.016-2.398m-.89-2.917l-.317-2.333"/></g></svg>