<svg xmlns="http://www.w3.org/2000/svg" width="16" height="16" viewBox="0 0 16 16"><path fill="#141414" fill-rule="evenodd" d="M11.185 10.19L16 14.841l-.829.857-4.814-4.651-.123.099c-.662.538-1.41.93-2.224 1.162a6.3 6.3 0 0 1-6.095-1.52A6.236 6.236 0 0 1 0 6.382a6.236 6.236 0 0 1 1.763-4.469A6.278 6.278 0 0 1 4.544.241a6.302 6.302 0 0 1 6.096 1.52 6.235 6.235 0 0 1 1.913 4.407 6.195 6.195 0 0 1-1.272 3.895l-.096.126zm-1.252-.382a5.048 5.048 0 0 0 1.428-3.62 5.048 5.048 0 0 0-1.55-3.568 5.101 5.101 0 0 0-4.939-1.232 5.083 5.083 0 0 0-2.25 1.354 5.052 5.052 0 0 0-1.429 3.62 5.052 5.052 0 0 0 1.551 3.57 5.103 5.103 0 0 0 4.938 1.23 5.08 5.08 0 0 0 2.251-1.354z"/></svg>