<svg width="24" height="24" viewBox="0 0 24 24" xmlns="http://www.w3.org/2000/svg"><title>Combined Shape</title><path d="M16.778 15.284L24 22.262l-1.243 1.287-7.221-6.978-.184.15a9.34 9.34 0 0 1-3.337 1.743 9.45 9.45 0 0 1-9.143-2.28 9.354 9.354 0 0 1-2.87-6.61A9.354 9.354 0 0 1 2.644 2.87 9.416 9.416 0 0 1 6.816.362a9.453 9.453 0 0 1 9.144 2.28 9.352 9.352 0 0 1 2.87 6.61 9.292 9.292 0 0 1-1.908 5.843l-.144.189zm-1.878-.572a7.572 7.572 0 0 0 2.141-5.429 7.572 7.572 0 0 0-2.325-5.353 7.652 7.652 0 0 0-7.408-1.847 7.625 7.625 0 0 0-3.376 2.03 7.579 7.579 0 0 0-2.142 5.43 7.579 7.579 0 0 0 2.326 5.354 7.654 7.654 0 0 0 7.407 1.846 7.619 7.619 0 0 0 3.377-2.03z" fill="#FEFEFE" fill-rule="evenodd"/></svg>