<svg width="18" height="24" viewBox="0 0 18 24" xmlns="http://www.w3.org/2000/svg"><title>ico/24 share и</title><path d="M14.56 24H2.912A2.912 2.912 0 0 1 0 21.088V10.605a2.912 2.912 0 0 1 2.912-2.912h2.33a.582.582 0 1 1 0 1.164h-2.33c-.964 0-1.747.783-1.747 1.748v10.483c0 .965.783 1.747 1.747 1.747H14.56c.965 0 1.747-.782 1.747-1.747V10.605c0-.965-.782-1.748-1.747-1.748h-2.33a.582.582 0 1 1 0-1.164h2.33a2.912 2.912 0 0 1 2.912 2.912v10.483A2.912 2.912 0 0 1 14.56 24zM13.007 5.658L9.32 1.97v14.92a.582.582 0 1 1-1.165 0V1.97l-3.69 3.69a.57.57 0 0 1-.804-.805L8.264.25c.019-.028.031-.059.056-.084a.567.567 0 0 1 .41-.165L8.736 0l.006.001a.566.566 0 0 1 .41.165c.024.024.035.055.054.082l4.606 4.606a.57.57 0 0 1-.805.804z" fill-rule="nonzero" fill="#000" opacity=".53"/></svg>