<svg width="59" height="18" viewBox="0 0 59 18" xmlns="http://www.w3.org/2000/svg"><title>Page 1</title><path d="M23.04 0h4.794l-3 16.863h-4.793L23.04 0zm-1.494 0l-7.551 16.83-5.077.005L4.625 2.776c3.09 1.893 5.715 4.893 6.641 6.988l.501 1.738L16.465 0h5.081zM0 .34L.06 0h7.437c1 .034 1.807.34 2.09 1.367l1.615 7.45C9.61 4.923 5.787 1.678 0 .34zm41.442 11.3c-.035 3.503-3.305 5.765-8.346 5.765-2.15-.022-4.221-.427-5.346-.9l.673-3.774.62.272c1.579.629 2.596.882 4.517.882 1.38 0 2.855-.519 2.866-1.65.006-.74-.62-1.264-2.487-2.09-1.817-.808-4.227-2.158-4.196-4.581C29.766 2.286 33.108 0 37.847 0c1.856 0 3.343.363 4.295.71l-.65 3.653-.435-.197a9.168 9.168 0 0 0-3.589-.645c-1.873 0-2.746.75-2.746 1.453-.006.785 1.018 1.31 2.692 2.09 2.77 1.2 4.053 2.66 4.028 4.576zm7.89-.883c.398-.97 1.909-4.714 1.909-4.714-.023.045.392-.975.638-1.61l.326 1.454 1.108 4.87h-3.98zM54.962 0H51.26c-1.15 0-2.012.3-2.512 1.402l-7.124 15.45h5.034s.825-2.078 1.013-2.534c.547 0 5.443.011 6.142.011.138.59.578 2.522.578 2.522h4.45L54.963 0z" fill="#FFF" fill-rule="evenodd" opacity=".5"/></svg>