<svg width="22" height="13" viewBox="0 0 22 13" xmlns="http://www.w3.org/2000/svg"><title>ico/24 ss_vk w</title><path d="M4.173 8.562c.85 1.151 1.825 2.169 3.086 2.889 1.428.816 2.965 1.062 4.586.987.757-.036.985-.234 1.02-.989.024-.517.083-1.032.338-1.497.25-.456.63-.542 1.067-.258.218.143.402.322.576.514.426.466.84.948 1.281 1.399.556.565 1.215.899 2.042.831l3.204.001c.516-.035.784-.667.488-1.244-.208-.403-.482-.761-.772-1.11-.654-.786-1.426-1.456-2.155-2.168-.658-.642-.7-1.014-.171-1.755.578-.81 1.198-1.586 1.78-2.39.544-.753 1.101-1.503 1.386-2.403.182-.574.02-.827-.566-.928-.101-.017-.207-.017-.31-.017L17.568.42c-.43-.007-.666.18-.817.562a21.1 21.1 0 0 1-.662 1.523c-.553 1.126-1.172 2.214-2.039 3.134-.192.203-.404.46-.724.355-.399-.146-.517-.805-.51-1.027L12.812.943c-.078-.574-.206-.831-.777-.943h-3.62c-.483 0-.727.188-.985.49-.147.175-.193.287.113.346.6.113.94.503 1.03 1.105.143.963.133 1.93.05 2.896a2.674 2.674 0 0 1-.184.827c-.175.416-.459.5-.83.244-.335-.231-.57-.556-.803-.883-.869-1.227-1.561-2.55-2.127-3.94C4.517.681 4.235.44 3.81.431A88.328 88.328 0 0 0 .67.434c-.628.01-.816.317-.558.888 1.138 2.534 2.406 4.997 4.061 7.24" fill="#FFF" fill-rule="evenodd" opacity=".5"/></svg>