<svg xmlns="http://www.w3.org/2000/svg" xmlns:xlink="http://www.w3.org/1999/xlink" width="220" height="56" viewBox="0 0 220 56">
  <defs>
    <path id="logo-a" d="M1.02027875,14.8296864 C1.02027875,20.1050871 3.94083624,25.0524042 8.52174216,27.6372125 L0.188571429,54.4250871 L31.2262021,54.4250871 L22.8922648,27.6372125 C27.4739373,25.0524042 30.3960279,20.1050871 30.3960279,14.8296864 C30.3960279,6.72954704 23.805993,0.141811847 15.7081533,0.141811847 C7.61031359,0.141811847 1.02027875,6.72954704 1.02027875,14.8296864 Z"/>
  </defs>
  <g fill="none" fill-rule="evenodd">
    <polygon fill="#FFF" points="219.479 26.516 219.479 23.945 207.714 23.945 207.714 44.154 219.479 44.154 219.479 41.583 210.666 41.583 210.666 35.168 218.642 35.168 218.642 32.597 210.666 32.597 210.666 26.516"/>
    <path fill="#FFF" d="M42.0702857 41.6782718C37.841993 41.6782718 34.4155122 38.5377143 34.4155122 34.049561 34.4155122 29.5606411 37.841993 26.4216167 42.0702857 26.4216167 46.2993449 26.4216167 49.7265923 29.5606411 49.7265923 34.049561 49.7265923 38.5377143 46.2993449 41.6782718 42.0702857 41.6782718M42.0702857 23.6995958C36.1026899 23.6995958 31.2657561 28.0290732 31.2657561 34.049561 31.2657561 40.0692822 36.1026899 44.3995261 42.0702857 44.3995261 48.0386481 44.3995261 52.8763484 40.0692822 52.8763484 34.049561 52.8763484 28.0290732 48.0386481 23.6995958 42.0702857 23.6995958M60.8754564 32.6450871L60.8754564 26.5502439 63.448 26.5502439C65.1650732 26.5502439 66.5563624 27.689338 66.5563624 29.4608362 66.5563624 31.5972125 65.1650732 32.6450871 63.448 32.6450871L60.8754564 32.6450871zM72.7807526 44.1540767L65.7836794 34.5522648C67.6908571 34.0478746 69.5351777 32.0793728 69.5351777 29.4608362 69.5351777 26.074216 66.8637491 23.9447387 63.448 23.9447387L57.9227038 23.9447387 57.9227038 44.1540767 60.8754564 44.1540767 60.8754564 35.1678049 63.0378955 35.1678049 69.3473728 44.1540767 72.7807526 44.1540767z"/>
    <polygon fill="#FFF" points="76.851 23.945 82.439 31.358 88.028 23.945 91.374 23.945 83.916 33.765 83.916 44.154 80.964 44.154 80.964 33.765 73.506 23.945"/>
    <polygon fill="#FFF" points="29.024 23.945 14.994 23.945 14.994 26.516 20.534 26.516 20.534 44.154 23.485 44.154 23.485 26.516 29.024 26.516"/>
    <path fill="#FFF" d="M2.96271777 28.7659582C2.96271777 27.6061672 3.91094077 26.358223 5.99289199 26.358223 8.86745645 26.358223 10.5730314 28.3819164 10.5730314 28.3819164L10.5730314 25.1164111C9.6861324 24.4824739 8.15686411 23.7013589 5.99289199 23.7013589 2.25825784 23.7013589.137212544 26.2493728.137212544 28.7659582.137212544 34.5856098 8.56773519 35.0332753 8.56773519 38.9380836 8.56773519 40.9571777 6.87519164 41.7229617 5.2041115 41.7229617 1.86731707 41.7229617.016097561 38.8867247 0 38.8706272L0 42.4902787C1.07777003 43.2928571 2.95505226 44.3798258 5.2041115 44.3798258 8.63672474 44.3798258 11.3924739 42.2434495 11.3924739 38.9380836 11.3924739 33.2725087 2.96271777 32.8815679 2.96271777 28.7659582M173.057213 41.6782718C168.827387 41.6782718 165.400906 38.5377143 165.400906 34.049561 165.400906 29.5606411 168.827387 26.4216167 173.057213 26.4216167 177.285505 26.4216167 180.713519 29.5606411 180.713519 34.049561 180.713519 38.5377143 177.285505 41.6782718 173.057213 41.6782718M173.057213 23.6995958C167.089617 23.6995958 162.253449 28.0290732 162.253449 34.049561 162.253449 40.0692822 167.089617 44.3995261 173.057213 44.3995261 179.026341 44.3995261 183.862509 40.0692822 183.862509 34.049561 183.862509 28.0290732 179.026341 23.6995958 173.057213 23.6995958M191.863763 32.6450871L191.863763 26.5502439 194.437073 26.5502439C196.15338 26.5502439 197.545436 27.689338 197.545436 29.4608362 197.545436 31.5972125 196.15338 32.6450871 194.437073 32.6450871L191.863763 32.6450871zM203.767526 44.1540767L196.772753 34.5522648C198.677631 34.0478746 200.523484 32.0793728 200.523484 29.4608362 200.523484 26.074216 197.852056 23.9447387 194.437073 23.9447387L188.909477 23.9447387 188.909477 44.1540767 191.863763 44.1540767 191.863763 35.1678049 194.025436 35.1678049 200.334913 44.1540767 203.767526 44.1540767z"/>
    <polygon fill="#FFF" points="160.01 23.945 145.983 23.945 145.983 26.516 151.519 26.516 151.519 44.154 154.473 44.154 154.473 26.516 160.01 26.516"/>
    <path fill="#FFF" d="M133.950105,28.7659582 C133.950105,27.6061672 134.897561,26.358223 136.981812,26.358223 C139.854843,26.358223 141.560418,28.3819164 141.560418,28.3819164 L141.560418,25.1164111 C140.673519,24.4824739 139.143484,23.7013589 136.981812,23.7013589 C133.246411,23.7013589 131.123066,26.2493728 131.123066,28.7659582 C131.123066,34.5856098 139.555122,35.0332753 139.555122,38.9380836 C139.555122,40.9571777 137.863345,41.7229617 136.193031,41.7229617 C132.853937,41.7229617 131.001951,38.8867247 130.987387,38.8706272 L130.987387,42.4902787 C132.06669,43.2928571 133.942439,44.3798258 136.193031,44.3798258 C139.624111,44.3798258 142.380627,42.2434495 142.380627,38.9380836 C142.380627,33.2725087 133.950105,32.8815679 133.950105,28.7659582"/>
    <g transform="translate(95.052 .625)">
      <mask id="logo-b" fill="#fff">
        <use xlink:href="#logo-a"/>
      </mask>
      <polygon fill="#EFC519" points="-18.283 37.703 -23.903 32.086 19.624 -11.44 25.242 -5.82" mask="url(#logo-b)"/>
      <polygon fill="#F36F2C" points="-12.666 43.323 -18.283 37.703 25.242 -5.821 30.86 -.202" mask="url(#logo-b)"/>
      <polygon fill="#E7234F" points="-7.048 48.94 -12.666 43.322 30.859 -.203 36.479 5.416" mask="url(#logo-b)"/>
      <polygon fill="#A71E5D" points="-1.43 54.559 -7.048 48.94 36.479 5.414 42.095 11.033" mask="url(#logo-b)"/>
      <polygon fill="#652267" points="4.188 60.177 -1.429 54.558 42.096 11.033 47.715 16.652" mask="url(#logo-b)"/>
      <polygon fill="#2AA2DC" points="9.807 65.794 4.188 60.176 47.715 16.651 53.334 22.27" mask="url(#logo-b)"/>
      <polygon fill="#82C441" points="15.425 71.413 9.807 65.794 53.334 22.27 58.95 27.888" mask="url(#logo-b)"/>
    </g>
  </g>
</svg>
